<svg version="1.1" xmlns="http://www.w3.org/2000/svg" viewBox="0 0 1625 368" width="1625" height="368">
	<title>animated-snowflake-logo</title>
	<defs>
		<clipPath clipPathUnits="userSpaceOnUse" id="cp1">
			<path d="M0 0L1624.47 0L1624.47 367.11L0 367.11L0 0Z" />
		</clipPath>
	</defs>
	<style>
		.shp0 { fill: #29b5e8; }
		.spinning-snowflake {
			transform-origin: 184px 184px;
			animation: spin 4s linear infinite;
		}
		@keyframes spin {
			from { transform: rotate(0deg); }
			to { transform: rotate(360deg); }
		}
	</style>
	<g id="HOMEPAGE">
		<g id="Snowflake-Homepage-platform-alt-3-Copy">
			<g id="Components-/-Navigation-/-Main">
				<g id="Logo-/-Snowflake-Blue">
					<g id="Layer">
						<g id="Clip-Path: Fill-1" clip-path="url(#cp1)">
							<!-- Animated Snowflake Icon -->
							<g class="spinning-snowflake">
								<path class="shp0" d="M123.11 190.26C121.46 195.56 117.88 200.27 112.61 203.28L34.52 248.01C23.49 254.3 9.44 250.57 3.11 239.69C-3.26 228.75 0.49 214.83 11.51 208.52L55.15 183.57L11.51 158.55C0.49 152.25 -3.28 138.33 3.11 127.43C9.44 116.52 23.49 112.78 34.52 119.07L112.61 163.77C118.1 166.91 121.77 171.89 123.31 177.46C123.83 179.25 124.06 181.04 124.15 182.84C124.21 185.32 123.89 187.83 123.11 190.26Z"/>
								<path class="shp0" d="M144.3 232.15C156.19 233 165.58 242.86 165.58 254.86L165.58 344.29C165.58 356.9 155.26 367.11 142.59 367.11C129.86 367.11 119.58 356.9 119.58 344.29L119.58 294.27L75.79 319.3C64.81 325.64 50.77 321.89 44.39 311C38.05 300.09 41.8 286.1 52.8 279.8L130.95 235.13C135.15 232.7 139.81 231.77 144.3 232.15Z"/>
								<path class="shp0" d="M224.34 134.96C212.42 134.09 203.05 124.21 203.05 112.22L203.05 22.78C203.05 10.21 213.31 0 226.05 0C238.78 0 249.06 10.21 249.06 22.78L249.06 72.83L292.82 47.76C303.82 41.46 317.87 45.2 324.21 56.09C330.54 67.04 326.81 80.97 315.8 87.27L237.66 131.98C233.46 134.38 228.81 135.32 224.34 134.96Z"/>
								<path class="shp0" d="M52.8 87.27C41.8 80.97 38.05 67.04 44.39 56.09C50.77 45.2 64.81 41.46 75.79 47.76L119.58 72.83L119.58 22.78C119.58 10.21 129.86 0 142.59 0C155.26 0 165.58 10.21 165.58 22.78L165.58 112.22C165.58 124.21 156.19 134.09 144.3 134.96C139.81 135.32 135.15 134.38 130.95 131.98L52.8 87.27Z"/>
								<path class="shp0" d="M193.15 224.46C192.22 225.41 190.43 226.18 189.07 226.18L179.52 226.18C178.21 226.18 176.39 225.41 175.44 224.46L142.98 192.31C142.05 191.4 141.3 189.58 141.3 188.3L141.3 178.81C141.3 177.5 142.05 175.68 142.98 174.76L175.44 142.6C176.39 141.66 178.21 140.91 179.52 140.91L189.07 140.91C190.4 140.91 192.22 141.66 193.15 142.6L225.63 174.76C226.56 175.68 227.31 177.5 227.31 178.81L227.31 188.3C227.31 189.58 226.56 191.4 225.63 192.31L193.15 224.46Z"/>
								<path class="shp0" d="M199.67 183.38C199.67 182.08 198.88 180.27 197.95 179.31L188.54 170.03C187.62 169.11 185.79 168.35 184.48 168.35L184.11 168.35C182.8 168.35 180.98 169.11 180.07 170.03L170.66 179.31C169.72 180.27 169 182.08 169 183.38L169 183.75C169 185.03 169.72 186.82 170.66 187.76L180.07 197.06C180.99 197.98 182.8 198.74 184.11 198.74L184.48 198.74C185.79 198.74 187.62 197.98 188.54 197.06L197.95 187.76C198.88 186.82 199.67 185.03 199.67 183.75L199.67 183.38Z"/>
								<path class="shp0" d="M315.8 279.8C326.81 286.1 330.54 300.09 324.21 311C317.87 321.89 303.81 325.64 292.82 319.3L249.06 294.27L249.06 344.29C249.06 356.9 238.78 367.11 226.05 367.11C213.31 367.11 203.05 356.9 203.05 344.29L203.05 254.86C203.05 242.86 212.42 233 224.34 232.15C228.81 231.77 233.46 232.7 237.66 235.13L315.8 279.8Z"/>
								<path class="shp0" d="M313.47 183.57L357.11 208.52C368.13 214.83 371.9 228.75 365.53 239.69C359.17 250.57 345.1 254.3 334.12 248.01L255.97 203.28C250.75 200.27 247.14 195.56 245.53 190.26C244.77 187.83 244.41 185.32 244.5 182.84C244.54 181.04 244.81 179.25 245.31 177.46C246.87 171.89 250.54 166.91 255.97 163.77L334.12 119.07C345.1 112.78 359.17 116.52 365.53 127.43C371.9 138.33 368.13 152.25 357.11 158.55L313.47 183.57Z"/>
							</g>
						</g>
					</g>
				</g>
			</g>
		</g>
	</g>
</svg>
